<svg xmlns="http://www.w3.org/2000/svg" width="1180" height="570" viewBox="0 0 1180 570">
<rect width="100%" height="100%" fill="#ffffff"/>
<text x="28.0" y="34.0" font-family="Inter, Arial, sans-serif" font-size="22" fill="#111827" text-anchor="start">OrderBookSide API throughput at 10k operations</text>
<text x="28.0" y="58.0" font-family="Inter, Arial, sans-serif" font-size="13" fill="#6b7280" text-anchor="start">Higher is better. Values are equivalent million operations per second.</text>
<line x1="300.0" y1="74" x2="300.0" y2="532" stroke="#e5e7eb" stroke-width="1"/>
<text x="300.0" y="66.0" font-family="Inter, Arial, sans-serif" font-size="11" fill="#6b7280" text-anchor="middle">0.00M/s</text>
<line x1="487.5" y1="74" x2="487.5" y2="532" stroke="#e5e7eb" stroke-width="1"/>
<text x="487.5" y="66.0" font-family="Inter, Arial, sans-serif" font-size="11" fill="#6b7280" text-anchor="middle">27.5M/s</text>
<line x1="675.0" y1="74" x2="675.0" y2="532" stroke="#e5e7eb" stroke-width="1"/>
<text x="675.0" y="66.0" font-family="Inter, Arial, sans-serif" font-size="11" fill="#6b7280" text-anchor="middle">55.1M/s</text>
<line x1="862.5" y1="74" x2="862.5" y2="532" stroke="#e5e7eb" stroke-width="1"/>
<text x="862.5" y="66.0" font-family="Inter, Arial, sans-serif" font-size="11" fill="#6b7280" text-anchor="middle">82.6M/s</text>
<line x1="1050.0" y1="74" x2="1050.0" y2="532" stroke="#e5e7eb" stroke-width="1"/>
<text x="1050.0" y="66.0" font-family="Inter, Arial, sans-serif" font-size="11" fill="#6b7280" text-anchor="middle">110M/s</text>

<text x="282.0" y="113.0" font-family="Inter, Arial, sans-serif" font-size="12" fill="#111827" text-anchor="end">addOrder: Direct side insert</text>
<rect x="300" y="92" width="96.1" height="14" fill="#7c3aed" rx="3"/>
<text x="404.1" y="103.0" font-family="Inter, Arial, sans-serif" font-size="11" fill="#6b7280" text-anchor="start">14.1M/s</text>
<text x="282.0" y="161.0" font-family="Inter, Arial, sans-serif" font-size="12" fill="#111827" text-anchor="end">bestPrice: Best price read</text>
<rect x="300" y="140" width="750.0" height="14" fill="#7c3aed" rx="3"/>
<text x="1058.0" y="151.0" font-family="Inter, Arial, sans-serif" font-size="11" fill="#6b7280" text-anchor="start">110M/s</text>
<text x="282.0" y="209.0" font-family="Inter, Arial, sans-serif" font-size="12" fill="#111827" text-anchor="end">getBestOrder: Best order pointer read</text>
<rect x="300" y="188" width="530.1" height="14" fill="#7c3aed" rx="3"/>
<text x="838.1" y="199.0" font-family="Inter, Arial, sans-serif" font-size="11" fill="#6b7280" text-anchor="start">77.9M/s</text>
<text x="282.0" y="257.0" font-family="Inter, Arial, sans-serif" font-size="12" fill="#111827" text-anchor="end">findOrder: Existing ID lookup</text>
<rect x="300" y="236" width="183.8" height="14" fill="#7c3aed" rx="3"/>
<text x="491.8" y="247.0" font-family="Inter, Arial, sans-serif" font-size="11" fill="#6b7280" text-anchor="start">27.0M/s</text>
<text x="282.0" y="305.0" font-family="Inter, Arial, sans-serif" font-size="12" fill="#111827" text-anchor="end">deleteOrderById: Existing ID delete</text>
<rect x="300" y="284" width="150.4" height="14" fill="#7c3aed" rx="3"/>
<text x="458.4" y="295.0" font-family="Inter, Arial, sans-serif" font-size="11" fill="#6b7280" text-anchor="start">22.1M/s</text>
<text x="282.0" y="353.0" font-family="Inter, Arial, sans-serif" font-size="12" fill="#111827" text-anchor="end">reduceOrderQuantity: Partial reduction</text>
<rect x="300" y="332" width="182.9" height="14" fill="#7c3aed" rx="3"/>
<text x="490.9" y="343.0" font-family="Inter, Arial, sans-serif" font-size="11" fill="#6b7280" text-anchor="start">26.9M/s</text>
<text x="282.0" y="401.0" font-family="Inter, Arial, sans-serif" font-size="12" fill="#111827" text-anchor="end">reduceOrderQuantity: Exact fill</text>
<rect x="300" y="380" width="140.2" height="14" fill="#7c3aed" rx="3"/>
<text x="448.2" y="391.0" font-family="Inter, Arial, sans-serif" font-size="11" fill="#6b7280" text-anchor="start">20.6M/s</text>
<text x="282.0" y="449.0" font-family="Inter, Arial, sans-serif" font-size="12" fill="#111827" text-anchor="end">modifyOrder: Same-price quantity reduction</text>
<rect x="300" y="428" width="178.3" height="14" fill="#7c3aed" rx="3"/>
<text x="486.3" y="439.0" font-family="Inter, Arial, sans-serif" font-size="11" fill="#6b7280" text-anchor="start">26.2M/s</text>
<text x="282.0" y="497.0" font-family="Inter, Arial, sans-serif" font-size="12" fill="#111827" text-anchor="end">modifyOrder: Price change</text>
<rect x="300" y="476" width="143.3" height="14" fill="#7c3aed" rx="3"/>
<text x="451.3" y="487.0" font-family="Inter, Arial, sans-serif" font-size="11" fill="#6b7280" text-anchor="start">21.1M/s</text>
</svg>
