<svg xmlns="http://www.w3.org/2000/svg" width="1180" height="426" viewBox="0 0 1180 426">
<rect width="100%" height="100%" fill="#ffffff"/>
<text x="28.0" y="34.0" font-family="Inter, Arial, sans-serif" font-size="22" fill="#111827" text-anchor="start">MatchingEngine API throughput</text>
<text x="28.0" y="58.0" font-family="Inter, Arial, sans-serif" font-size="13" fill="#6b7280" text-anchor="start">Higher is better. Values are equivalent million operations per second.</text>
<line x1="300.0" y1="74" x2="300.0" y2="388" stroke="#e5e7eb" stroke-width="1"/>
<text x="300.0" y="66.0" font-family="Inter, Arial, sans-serif" font-size="11" fill="#6b7280" text-anchor="middle">0.00M/s</text>
<line x1="487.5" y1="74" x2="487.5" y2="388" stroke="#e5e7eb" stroke-width="1"/>
<text x="487.5" y="66.0" font-family="Inter, Arial, sans-serif" font-size="11" fill="#6b7280" text-anchor="middle">5.90M/s</text>
<line x1="675.0" y1="74" x2="675.0" y2="388" stroke="#e5e7eb" stroke-width="1"/>
<text x="675.0" y="66.0" font-family="Inter, Arial, sans-serif" font-size="11" fill="#6b7280" text-anchor="middle">11.8M/s</text>
<line x1="862.5" y1="74" x2="862.5" y2="388" stroke="#e5e7eb" stroke-width="1"/>
<text x="862.5" y="66.0" font-family="Inter, Arial, sans-serif" font-size="11" fill="#6b7280" text-anchor="middle">17.7M/s</text>
<line x1="1050.0" y1="74" x2="1050.0" y2="388" stroke="#e5e7eb" stroke-width="1"/>
<text x="1050.0" y="66.0" font-family="Inter, Arial, sans-serif" font-size="11" fill="#6b7280" text-anchor="middle">23.6M/s</text>
<rect x="300" y="60" width="12" height="12" fill="#2563eb" rx="2"/>
<text x="318.0" y="71.0" font-family="Inter, Arial, sans-serif" font-size="12" fill="#6b7280" text-anchor="start">1k</text>
<rect x="412" y="60" width="12" height="12" fill="#f97316" rx="2"/>
<text x="430.0" y="71.0" font-family="Inter, Arial, sans-serif" font-size="12" fill="#6b7280" text-anchor="start">10k</text>
<text x="282.0" y="113.0" font-family="Inter, Arial, sans-serif" font-size="12" fill="#111827" text-anchor="end">processOrder: Add-only limit orders</text>
<rect x="300" y="92" width="382.3" height="14" fill="#2563eb" rx="3"/>
<text x="690.3" y="103.0" font-family="Inter, Arial, sans-serif" font-size="11" fill="#6b7280" text-anchor="start">12.0M/s</text>
<rect x="300" y="111" width="397.7" height="14" fill="#f97316" rx="3"/>
<text x="705.7" y="122.0" font-family="Inter, Arial, sans-serif" font-size="11" fill="#6b7280" text-anchor="start">12.5M/s</text>
<text x="282.0" y="161.0" font-family="Inter, Arial, sans-serif" font-size="12" fill="#111827" text-anchor="end">processOrder: Match-heavy market buys</text>
<rect x="300" y="140" width="393.9" height="14" fill="#2563eb" rx="3"/>
<text x="701.9" y="151.0" font-family="Inter, Arial, sans-serif" font-size="11" fill="#6b7280" text-anchor="start">12.4M/s</text>
<rect x="300" y="159" width="352.3" height="14" fill="#f97316" rx="3"/>
<text x="660.3" y="170.0" font-family="Inter, Arial, sans-serif" font-size="11" fill="#6b7280" text-anchor="start">11.1M/s</text>
<text x="282.0" y="209.0" font-family="Inter, Arial, sans-serif" font-size="12" fill="#111827" text-anchor="end">processOrder: Mixed limits and markets</text>
<rect x="300" y="188" width="289.4" height="14" fill="#2563eb" rx="3"/>
<text x="597.4" y="199.0" font-family="Inter, Arial, sans-serif" font-size="11" fill="#6b7280" text-anchor="start">9.11M/s</text>
<rect x="300" y="207" width="268.7" height="14" fill="#f97316" rx="3"/>
<text x="576.7" y="218.0" font-family="Inter, Arial, sans-serif" font-size="11" fill="#6b7280" text-anchor="start">8.46M/s</text>
<text x="282.0" y="257.0" font-family="Inter, Arial, sans-serif" font-size="12" fill="#111827" text-anchor="end">cancelOrder: Existing resting orders</text>
<rect x="300" y="236" width="582.0" height="14" fill="#2563eb" rx="3"/>
<text x="890.0" y="247.0" font-family="Inter, Arial, sans-serif" font-size="11" fill="#6b7280" text-anchor="start">18.3M/s</text>
<rect x="300" y="255" width="540.1" height="14" fill="#f97316" rx="3"/>
<text x="848.1" y="266.0" font-family="Inter, Arial, sans-serif" font-size="11" fill="#6b7280" text-anchor="start">17.0M/s</text>
<text x="282.0" y="305.0" font-family="Inter, Arial, sans-serif" font-size="12" fill="#111827" text-anchor="end">modifyOrder: Same-price quantity reduction</text>
<rect x="300" y="284" width="750.0" height="14" fill="#2563eb" rx="3"/>
<text x="1058.0" y="295.0" font-family="Inter, Arial, sans-serif" font-size="11" fill="#6b7280" text-anchor="start">23.6M/s</text>
<rect x="300" y="303" width="611.5" height="14" fill="#f97316" rx="3"/>
<text x="919.5" y="314.0" font-family="Inter, Arial, sans-serif" font-size="11" fill="#6b7280" text-anchor="start">19.2M/s</text>
<text x="282.0" y="353.0" font-family="Inter, Arial, sans-serif" font-size="12" fill="#111827" text-anchor="end">modifyOrder: Price change</text>
<rect x="300" y="332" width="570.2" height="14" fill="#2563eb" rx="3"/>
<text x="878.2" y="343.0" font-family="Inter, Arial, sans-serif" font-size="11" fill="#6b7280" text-anchor="start">17.9M/s</text>
<rect x="300" y="351" width="524.2" height="14" fill="#f97316" rx="3"/>
<text x="832.2" y="362.0" font-family="Inter, Arial, sans-serif" font-size="11" fill="#6b7280" text-anchor="start">16.5M/s</text>
</svg>
