<svg xmlns="http://www.w3.org/2000/svg" width="1180" height="426" viewBox="0 0 1180 426">
<rect width="100%" height="100%" fill="#ffffff"/>
<text x="28.0" y="34.0" font-family="Inter, Arial, sans-serif" font-size="22" fill="#111827" text-anchor="start">MatchingEngine API latency</text>
<text x="28.0" y="58.0" font-family="Inter, Arial, sans-serif" font-size="13" fill="#6b7280" text-anchor="start">Lower is better. Values are mean CPU ns/op.</text>
<line x1="300.0" y1="74" x2="300.0" y2="388" stroke="#e5e7eb" stroke-width="1"/>
<text x="300.0" y="66.0" font-family="Inter, Arial, sans-serif" font-size="11" fill="#6b7280" text-anchor="middle">0.00 ns</text>
<line x1="487.5" y1="74" x2="487.5" y2="388" stroke="#e5e7eb" stroke-width="1"/>
<text x="487.5" y="66.0" font-family="Inter, Arial, sans-serif" font-size="11" fill="#6b7280" text-anchor="middle">29.6 ns</text>
<line x1="675.0" y1="74" x2="675.0" y2="388" stroke="#e5e7eb" stroke-width="1"/>
<text x="675.0" y="66.0" font-family="Inter, Arial, sans-serif" font-size="11" fill="#6b7280" text-anchor="middle">59.1 ns</text>
<line x1="862.5" y1="74" x2="862.5" y2="388" stroke="#e5e7eb" stroke-width="1"/>
<text x="862.5" y="66.0" font-family="Inter, Arial, sans-serif" font-size="11" fill="#6b7280" text-anchor="middle">88.7 ns</text>
<line x1="1050.0" y1="74" x2="1050.0" y2="388" stroke="#e5e7eb" stroke-width="1"/>
<text x="1050.0" y="66.0" font-family="Inter, Arial, sans-serif" font-size="11" fill="#6b7280" text-anchor="middle">118 ns</text>
<rect x="300" y="60" width="12" height="12" fill="#2563eb" rx="2"/>
<text x="318.0" y="71.0" font-family="Inter, Arial, sans-serif" font-size="12" fill="#6b7280" text-anchor="start">1k</text>
<rect x="412" y="60" width="12" height="12" fill="#f97316" rx="2"/>
<text x="430.0" y="71.0" font-family="Inter, Arial, sans-serif" font-size="12" fill="#6b7280" text-anchor="start">10k</text>
<text x="282.0" y="113.0" font-family="Inter, Arial, sans-serif" font-size="12" fill="#111827" text-anchor="end">processOrder: Add-only limit orders</text>
<rect x="300" y="92" width="526.8" height="14" fill="#2563eb" rx="3"/>
<text x="834.8" y="103.0" font-family="Inter, Arial, sans-serif" font-size="11" fill="#6b7280" text-anchor="start">83.1 ns</text>
<rect x="300" y="111" width="506.6" height="14" fill="#f97316" rx="3"/>
<text x="814.6" y="122.0" font-family="Inter, Arial, sans-serif" font-size="11" fill="#6b7280" text-anchor="start">79.9 ns</text>
<text x="282.0" y="161.0" font-family="Inter, Arial, sans-serif" font-size="12" fill="#111827" text-anchor="end">processOrder: Match-heavy market buys</text>
<rect x="300" y="140" width="511.6" height="14" fill="#2563eb" rx="3"/>
<text x="819.6" y="151.0" font-family="Inter, Arial, sans-serif" font-size="11" fill="#6b7280" text-anchor="start">80.7 ns</text>
<rect x="300" y="159" width="573.1" height="14" fill="#f97316" rx="3"/>
<text x="881.1" y="170.0" font-family="Inter, Arial, sans-serif" font-size="11" fill="#6b7280" text-anchor="start">90.4 ns</text>
<text x="282.0" y="209.0" font-family="Inter, Arial, sans-serif" font-size="12" fill="#111827" text-anchor="end">processOrder: Mixed limits and markets</text>
<rect x="300" y="188" width="696.1" height="14" fill="#2563eb" rx="3"/>
<text x="1004.1" y="199.0" font-family="Inter, Arial, sans-serif" font-size="11" fill="#6b7280" text-anchor="start">110 ns</text>
<rect x="300" y="207" width="750.0" height="14" fill="#f97316" rx="3"/>
<text x="1058.0" y="218.0" font-family="Inter, Arial, sans-serif" font-size="11" fill="#6b7280" text-anchor="start">118 ns</text>
<text x="282.0" y="257.0" font-family="Inter, Arial, sans-serif" font-size="12" fill="#111827" text-anchor="end">cancelOrder: Existing resting orders</text>
<rect x="300" y="236" width="346.2" height="14" fill="#2563eb" rx="3"/>
<text x="654.2" y="247.0" font-family="Inter, Arial, sans-serif" font-size="11" fill="#6b7280" text-anchor="start">54.6 ns</text>
<rect x="300" y="255" width="372.8" height="14" fill="#f97316" rx="3"/>
<text x="680.8" y="266.0" font-family="Inter, Arial, sans-serif" font-size="11" fill="#6b7280" text-anchor="start">58.8 ns</text>
<text x="282.0" y="305.0" font-family="Inter, Arial, sans-serif" font-size="12" fill="#111827" text-anchor="end">modifyOrder: Same-price quantity reduction</text>
<rect x="300" y="284" width="268.8" height="14" fill="#2563eb" rx="3"/>
<text x="576.8" y="295.0" font-family="Inter, Arial, sans-serif" font-size="11" fill="#6b7280" text-anchor="start">42.4 ns</text>
<rect x="300" y="303" width="329.7" height="14" fill="#f97316" rx="3"/>
<text x="637.7" y="314.0" font-family="Inter, Arial, sans-serif" font-size="11" fill="#6b7280" text-anchor="start">52.0 ns</text>
<text x="282.0" y="353.0" font-family="Inter, Arial, sans-serif" font-size="12" fill="#111827" text-anchor="end">modifyOrder: Price change</text>
<rect x="300" y="332" width="353.1" height="14" fill="#2563eb" rx="3"/>
<text x="661.1" y="343.0" font-family="Inter, Arial, sans-serif" font-size="11" fill="#6b7280" text-anchor="start">55.7 ns</text>
<rect x="300" y="351" width="384.2" height="14" fill="#f97316" rx="3"/>
<text x="692.2" y="362.0" font-family="Inter, Arial, sans-serif" font-size="11" fill="#6b7280" text-anchor="start">60.6 ns</text>
</svg>
